<?xml version="1.0" encoding="utf-8"?>
<!-- Generator: Adobe Illustrator 24.3.0, SVG Export Plug-In . SVG Version: 6.00 Build 0)  -->
<svg version="1.1" id="Layer_1" xmlns="http://www.w3.org/2000/svg" xmlns:xlink="http://www.w3.org/1999/xlink" x="0px" y="0px"
	 width="29.0107px" height="19.8154px" viewBox="0 0 29.0107 19.8154" style="enable-background:new 0 0 29.0107 19.8154;"
	 xml:space="preserve">
<g>
	<g>
		<path d="M14.5063,14.1486c-1.8489,0-3.3546-1.5856-3.3546-3.535s1.5058-3.536,3.3546-3.536s3.3528,1.5867,3.3528,3.536
			S16.3552,14.1486,14.5063,14.1486z"/>
	</g>
	<path d="M7.758,10.6134c0-2.5927,1.56-4.7925,3.7364-5.6561L10.5589,3.971c-2.3688,1.1732-4.017,3.7056-4.017,6.6424
		c0,2.9367,1.6482,5.4688,4.0169,6.6419l0.9355-0.9863C9.318,15.4054,7.758,13.2056,7.758,10.6134z"/>
	<path d="M21.2528,10.6134c0,2.5923-1.5601,4.7921-3.7362,5.6557l0.9357,0.9866c2.3688-1.173,4.0166-3.7053,4.0166-6.6422
		c0-2.937-1.6479-5.4697-4.0167-6.6427l-0.9356,0.9865C19.6927,5.8206,21.2528,8.0206,21.2528,10.6134z"/>
	<path d="M3.4577,10.6134c0-3.5364,1.8388-6.6227,4.5572-8.2704l-0.884-0.932c-2.928,1.9083-4.8893,5.3139-4.8893,9.2024
		c0,3.8881,1.9613,7.2936,4.8893,9.2018l0.8839-0.9319C5.2966,17.2358,3.4577,14.1497,3.4577,10.6134z"/>
	<path d="M25.5531,10.6134c0,3.5365-1.8385,6.6228-4.5568,8.2703l0.8837,0.9317c2.9277-1.9082,4.8892-5.3137,4.8892-9.202
		c0-3.8886-1.9615-7.2942-4.8892-9.2025l-0.8838,0.9317C23.7145,3.9902,25.5531,7.0768,25.5531,10.6134z"/>
</g>
</svg>
