<?xml version="1.0" encoding="utf-8"?>
<!-- Generator: Adobe Illustrator 24.3.0, SVG Export Plug-In . SVG Version: 6.00 Build 0)  -->
<svg version="1.1" id="Layer_1" xmlns="http://www.w3.org/2000/svg" xmlns:xlink="http://www.w3.org/1999/xlink" x="0px" y="0px"
	 viewBox="0 0 42.976 42.9758" style="enable-background:new 0 0 42.976 42.9758;" xml:space="preserve">
<style type="text/css">
	.st0{fill:#00985F;}
</style>
<g>
	<path class="st0" d="M18.6789,14.1836c-0.1865,0.8513-0.3633,1.6583-0.5474,2.4985c-2.3553-0.4073-4.6733-0.8082-7.0262-1.2152
		c-0.1008-1.9491-0.2001-3.8708-0.3018-5.8371c-0.5415,0.0864-1.051,0.1678-1.6121,0.2574c0-1.0771-0.0083-2.1081,0.0137-3.1383
		c0.0021-0.0965,0.1846-0.206,0.3017-0.2804c1.0062-0.639,2.1072-0.5684,3.2176-0.4175c0.0153,0.0021,0.0308,0.0067,0.0459,0.0057
		c0.7088-0.0474,1.1399,0.2751,1.5651,0.8643c1.4076,1.9505,3.7074,2.1257,5.4638,0.5203c0.15-0.1371,0.4447-0.221,0.6418-0.1808
		c0.5109,0.1042,1.0518,0.2116,1.4915,0.4696c0.3827,0.2246,0.6436,0.6568,1.0275,1.0721
		c-0.6288,0.1975-1.1351,0.3582-1.6426,0.5154c-0.2943,0.0911-0.6028,0.1479-0.8834,0.2696
		c-1.0762,0.467-2.1148,0.5115-3.2357,0.0448c-1.0004-0.4165-2.0423,0.1605-2.3873,1.1469
		c-0.3291,0.9409,0.1502,2.0021,1.1226,2.3921C16.8187,13.5258,17.723,13.8332,18.6789,14.1836z"/>
	<path class="st0" d="M39.3056,19.1284c-2.0297,0.0051-3.672-1.6445-3.6662-3.6826c0.0058-2.0157,1.6314-3.6545,3.6396-3.6691
		c2.0208-0.0147,3.6899,1.6397,3.697,3.6645C42.9831,17.471,41.3383,19.1233,39.3056,19.1284z"/>
	<path class="st0" d="M19.5818,19.2956c-0.7292,0.9815-1.4352,1.9314-2.1406,2.8817c-0.3216,0.4333-0.6289,0.8783-0.9713,1.2944
		c-0.0967,0.1175-0.3086,0.2349-0.4435,0.2117c-1.3377-0.2308-2.6641-0.5189-3.8757-1.1649
		c-0.8344-0.4449-1.5915-0.9882-1.7539-2.0106c-0.137-0.8627,0.0948-1.6835,0.4019-2.4817c0.1269-0.3298,0.2797-0.6496,0.441-1.0206
		c0.8603,0.1432,1.723,0.283,2.5843,0.431c1.1995,0.206,2.3992,0.4111,3.5949,0.6375c0.1331,0.0252,0.2408,0.186,0.3597,0.2846
		c0.0995,0.0824,0.1864,0.1902,0.2992,0.2446C18.5617,18.8364,19.053,19.0539,19.5818,19.2956z"/>
	<path class="st0" d="M20.0033,3.1502c-0.0514,1.1879-0.339,2.1958-1.0691,3.036c-1.0053,1.1571-2.425,1.147-3.367-0.0623
		c-0.9899-1.2709-1.209-2.7168-0.71-4.2374c0.4075-1.2419,1.4979-1.9724,2.6626-1.8784c1.161,0.0937,2.1344,1.0546,2.3833,2.3654
		C19.9575,2.6601,19.9786,2.9532,20.0033,3.1502z"/>
	<path class="st0" d="M8.653,38.7362c-0.8403-0.4841-1.0532-1.2497-1.1477-2.0899c-0.0751-0.6685,0.0572-1.2305,0.4807-1.7977
		c0.8781-1.1761,1.6817-2.4048,3.0002-3.1557c0.0661-0.0377,0.131-0.0775,0.1436-0.0849c0.9789,0.9674,1.939,1.9163,2.9456,2.9111
		C12.302,35.8983,10.4843,37.3119,8.653,38.7362z"/>
	<path class="st0" d="M25.4715,22.6741c1.3773,1.1142,2.7341,2.1998,4.0752,3.3044c0.3554,0.2927,0.3757,1.6377,0.0149,2.0459
		c-0.2487,0.2814-0.5859,0.4877-0.8976,0.7077c-0.0693,0.0489-0.2098,0.0466-0.2967,0.0133
		c-1.888-0.7233-3.7425-1.5103-5.287-2.8676c-0.0922-0.0811-0.1882-0.1579-0.2979-0.2496
		C23.6911,24.6299,24.5699,23.6645,25.4715,22.6741z"/>
	<path class="st0" d="M7.6875,7.2249c0,1.0122,0,1.9485,0,2.8802c-0.9602,0.3851-1.9084,0.2509-2.8655,0.0657
		C3.629,9.94,2.4299,9.7403,1.2337,9.5258C0.3986,9.376-0.0953,8.7836,0.0154,8.0679c0.1124-0.7274,0.7352-1.152,1.5817-1.0401
		C3.031,7.2173,4.46,7.4466,5.896,7.6171c0.3603,0.0427,0.7437-0.0544,1.1088-0.1263C7.2243,7.4476,7.4289,7.3288,7.6875,7.2249z"/>
	<path class="st0" d="M15.3335,33.5024c-0.8866-0.8807-1.7709-1.7591-2.5894-2.5722c0-0.3048,0.0302-0.548-0.0054-0.7811
		c-0.1299-0.8498-0.2818-1.6963-0.4389-2.6234c1.6232,0.2397,3.1946,0.4718,4.818,0.7115c-0.1674,1.0975-0.3288,2.156-0.4906,3.2144
		c-0.0093,0.0609-0.0241,0.1209-0.033,0.1818C16.4179,32.8374,16.4039,32.8582,15.3335,33.5024z"/>
	<path class="st0" d="M21.2903,10.8747c0.7463-0.2299,1.4766-0.4663,2.2157-0.6709c0.1178-0.0326,0.3319,0.0345,0.4045,0.1295
		c0.3179,0.4159,0.6188,0.8478,0.8907,1.2952c0.388,0.6384,0.4097,1.3151,0.0982,1.9923c-0.3042,0.6613-0.8795,0.9139-1.5663,0.6675
		c-2.2472-0.8061-4.4895-1.6257-6.7345-2.4378c-0.2784-0.1007-0.4822-0.266-0.3769-0.5813c0.11-0.3292,0.3891-0.3015,0.657-0.2149
		c1.2166,0.3931,2.4338,0.7842,3.6469,1.188c0.3914,0.1303,0.7397,0.1212,0.9874-0.2424c0.2473-0.363,0.1622-0.6993-0.1483-0.9924
		C21.3343,10.9786,21.3212,10.9313,21.2903,10.8747z"/>
	<path class="st0" d="M24.2988,21.7598c-0.849,0.9312-1.6666,1.828-2.3935,2.6253c-0.381-0.0953-0.6541-0.205-0.9338-0.2261
		c-0.9666-0.0728-1.9355-0.1147-3.0211-0.1749c1.0357-1.3959,2.0125-2.7124,3.0194-4.0694
		C22.0884,20.504,23.3518,20.7842,24.2988,21.7598z"/>
	<path class="st0" d="M29.7174,29.8628c0.1048-0.0802,0.1869-0.1493,0.2751-0.2095c1.0413-0.7103,1.4182-1.7158,1.2585-2.9311
		c-0.0464-0.3528,0.0289-0.5636,0.3277-0.7652c0.5621-0.3793,1.0895-0.8096,1.6378-1.2099
		c0.5435-0.3967,1.1048-0.3784,1.5101,0.0352c0.3862,0.3941,0.423,0.9541,0.0288,1.4735c-0.839,1.1054-1.6995,2.1947-2.5663,3.2786
		c-0.2104,0.2631-0.4663,0.495-0.7242,0.7142C30.716,30.8849,30.2332,30.7835,29.7174,29.8628z"/>
	<path class="st0" d="M5.9903,36.5384c0.0297,0.1849,0.0658,0.335,0.0764,0.4869c0.0959,1.3727,0.8165,2.3556,1.9151,3.1139
		c0.4849,0.3347,0.8232,1.5949,0.5894,2.138c-0.1729,0.4016-0.4868,0.6363-0.9166,0.6881c-0.4523,0.0546-0.8635-0.1015-1.0687-0.5
		c-0.777-1.5089-1.5005-3.0458-1.7358-4.7511C4.744,36.9455,5.1166,36.5789,5.9903,36.5384z"/>
	<path class="st0" d="M17.3495,26.7708c-1.7492-0.2575-3.4224-0.5009-5.0936-0.7578c-0.0898-0.0138-0.2166-0.13-0.2339-0.2169
		c-0.1161-0.5835-0.2072-1.172-0.3179-1.8268c1.8841,0.8544,3.8187,1.1849,5.8357,1.4439
		C17.4763,25.8663,17.4158,26.2978,17.3495,26.7708z"/>
</g>
</svg>
