<?xml version="1.0" encoding="utf-8"?>
<!-- Generator: Adobe Illustrator 24.3.0, SVG Export Plug-In . SVG Version: 6.00 Build 0)  -->
<svg version="1.1" id="Layer_1" xmlns="http://www.w3.org/2000/svg" xmlns:xlink="http://www.w3.org/1999/xlink" x="0px" y="0px"
	 width="46.1854px" height="55.4104px" viewBox="0 0 46.1854 55.4104" style="enable-background:new 0 0 46.1854 55.4104;"
	 xml:space="preserve">
<g>
	<path style="fill:#00985F;" d="M20.3277,16.2169c-0.1865,0.8513-0.3633,1.6583-0.5474,2.4985
		c-2.3553-0.4073-4.6733-0.8082-7.0262-1.2152c-0.1008-1.9491-0.2001-3.8708-0.3018-5.8371
		c-0.5415,0.0864-1.051,0.1678-1.6121,0.2574c0-1.0771-0.0083-2.1081,0.0137-3.1383c0.0021-0.0965,0.1846-0.206,0.3017-0.2804
		c1.0062-0.639,2.1072-0.5684,3.2176-0.4175c0.0153,0.0021,0.0308,0.0067,0.0459,0.0057c0.7088-0.0474,1.1399,0.2751,1.5651,0.8643
		c1.4076,1.9505,3.7074,2.1257,5.4638,0.5203c0.15-0.1371,0.4447-0.221,0.6418-0.1808c0.5109,0.1042,1.0518,0.2116,1.4915,0.4696
		c0.3827,0.2246,0.6436,0.6568,1.0275,1.0721c-0.6288,0.1975-1.1351,0.3582-1.6426,0.5154
		c-0.2943,0.0911-0.6028,0.1479-0.8834,0.2696c-1.0762,0.467-2.1148,0.5115-3.2357,0.0448
		c-1.0004-0.4165-2.0423,0.1605-2.3873,1.1469c-0.3291,0.9409,0.1502,2.0021,1.1226,2.3921
		C18.4675,15.5591,19.3718,15.8665,20.3277,16.2169z"/>
	<path style="fill:#00985F;" d="M40.9544,21.1617c-2.0297,0.0051-3.672-1.6445-3.6662-3.6826
		c0.0058-2.0157,1.6314-3.6545,3.6396-3.6691c2.0208-0.0147,3.6899,1.6397,3.697,3.6645
		C44.6319,19.5043,42.9871,21.1566,40.9544,21.1617z"/>
	<path style="fill:#00985F;" d="M21.2306,21.3289c-0.7292,0.9815-1.4352,1.9314-2.1406,2.8817
		c-0.3216,0.4333-0.6289,0.8783-0.9713,1.2944c-0.0967,0.1175-0.3086,0.2349-0.4435,0.2117
		c-1.3377-0.2308-2.6641-0.5189-3.8757-1.1649c-0.8344-0.4449-1.5915-0.9882-1.7539-2.0106
		c-0.137-0.8627,0.0948-1.6835,0.4019-2.4817c0.1269-0.3298,0.2797-0.6496,0.441-1.0206c0.8603,0.1432,1.723,0.283,2.5843,0.431
		c1.1995,0.206,2.3992,0.4111,3.5949,0.6375c0.1331,0.0252,0.2408,0.186,0.3597,0.2846c0.0995,0.0824,0.1864,0.1902,0.2992,0.2446
		C20.2105,20.8697,20.7018,21.0872,21.2306,21.3289z"/>
	<path style="fill:#00985F;" d="M21.6521,5.1835c-0.0514,1.1879-0.339,2.1958-1.0691,3.036c-1.0053,1.1571-2.425,1.147-3.367-0.0623
		c-0.9899-1.2709-1.209-2.7168-0.71-4.2374c0.4075-1.2419,1.4979-1.9724,2.6626-1.8784c1.161,0.0937,2.1344,1.0546,2.3833,2.3654
		C21.6063,4.6934,21.6274,4.9865,21.6521,5.1835z"/>
	<path style="fill:#00985F;" d="M10.3018,40.7695c-0.8403-0.4841-1.0532-1.2497-1.1477-2.0899
		c-0.0751-0.6685,0.0572-1.2305,0.4807-1.7977c0.8781-1.1761,1.6817-2.4048,3.0002-3.1557c0.0661-0.0377,0.131-0.0775,0.1436-0.0849
		c0.9789,0.9674,1.939,1.9163,2.9456,2.9111C13.9508,37.9316,12.1331,39.3452,10.3018,40.7695z"/>
	<path style="fill:#00985F;" d="M27.1203,24.7074c1.3773,1.1142,2.7341,2.1998,4.0752,3.3044
		c0.3554,0.2927,0.3757,1.6377,0.0149,2.0459c-0.2487,0.2814-0.5859,0.4877-0.8976,0.7077
		c-0.0693,0.0489-0.2098,0.0466-0.2967,0.0133c-1.888-0.7233-3.7425-1.5103-5.287-2.8676
		c-0.0922-0.0811-0.1882-0.1579-0.2979-0.2496C25.3399,26.6632,26.2187,25.6978,27.1203,24.7074z"/>
	<path style="fill:#00985F;" d="M9.3363,9.2582c0,1.0122,0,1.9485,0,2.8802c-0.9602,0.3851-1.9084,0.2509-2.8655,0.0657
		c-1.193-0.2308-2.3921-0.4305-3.5883-0.645c-0.8351-0.1498-1.329-0.7422-1.2183-1.4579c0.1124-0.7274,0.7352-1.152,1.5817-1.0401
		c1.4339,0.1895,2.8629,0.4188,4.2989,0.5893C7.9051,9.6931,8.2885,9.596,8.6536,9.5241C8.8731,9.4809,9.0777,9.3621,9.3363,9.2582z
		"/>
	<path style="fill:#00985F;" d="M16.9823,35.5357c-0.8866-0.8807-1.7709-1.7591-2.5894-2.5722c0-0.3048,0.0302-0.548-0.0054-0.7811
		c-0.1299-0.8498-0.2818-1.6963-0.4389-2.6234c1.6232,0.2397,3.1946,0.4718,4.818,0.7115c-0.1674,1.0975-0.3288,2.156-0.4906,3.2144
		c-0.0093,0.0609-0.0241,0.1209-0.033,0.1818C18.0667,34.8707,18.0527,34.8915,16.9823,35.5357z"/>
	<path style="fill:#00985F;" d="M22.9391,12.908c0.7463-0.2299,1.4766-0.4663,2.2157-0.6709
		c0.1178-0.0326,0.3319,0.0345,0.4045,0.1295c0.3179,0.4159,0.6188,0.8478,0.8907,1.2952c0.388,0.6384,0.4097,1.3151,0.0982,1.9923
		c-0.3042,0.6613-0.8795,0.9139-1.5663,0.6675c-2.2472-0.8061-4.4895-1.6257-6.7345-2.4378
		c-0.2784-0.1007-0.4822-0.266-0.3769-0.5813c0.11-0.3292,0.3891-0.3015,0.657-0.2149c1.2166,0.3931,2.4338,0.7842,3.6469,1.188
		c0.3914,0.1303,0.7397,0.1212,0.9874-0.2424c0.2473-0.363,0.1622-0.6993-0.1483-0.9924
		C22.9831,13.0119,22.97,12.9646,22.9391,12.908z"/>
	<path style="fill:#00985F;" d="M25.9476,23.7931c-0.849,0.9312-1.6666,1.828-2.3935,2.6253
		c-0.381-0.0953-0.6541-0.205-0.9338-0.2261c-0.9666-0.0728-1.9355-0.1147-3.0211-0.1749c1.0357-1.3959,2.0125-2.7124,3.0194-4.0694
		C23.7372,22.5373,25.0006,22.8175,25.9476,23.7931z"/>
	<path style="fill:#00985F;" d="M31.3662,31.8961c0.1048-0.0802,0.1869-0.1493,0.2751-0.2095
		c1.0413-0.7103,1.4182-1.7158,1.2585-2.9311c-0.0464-0.3528,0.0289-0.5636,0.3277-0.7652
		c0.5621-0.3793,1.0895-0.8096,1.6378-1.2099c0.5435-0.3967,1.1048-0.3784,1.5101,0.0352c0.3862,0.3941,0.423,0.9541,0.0288,1.4735
		c-0.839,1.1054-1.6995,2.1947-2.5663,3.2786c-0.2104,0.2631-0.4663,0.495-0.7242,0.7142
		C32.3648,32.9182,31.882,32.8168,31.3662,31.8961z"/>
	<path style="fill:#00985F;" d="M7.6391,38.5717c0.0297,0.1849,0.0658,0.335,0.0764,0.4869
		c0.0959,1.3727,0.8165,2.3556,1.9151,3.1139c0.4849,0.3347,0.8232,1.5949,0.5894,2.138c-0.1729,0.4016-0.4868,0.6363-0.9166,0.6881
		c-0.4523,0.0546-0.8635-0.1015-1.0687-0.5c-0.777-1.5089-1.5005-3.0458-1.7358-4.7511
		C6.3928,38.9788,6.7654,38.6122,7.6391,38.5717z"/>
	<path style="fill:#00985F;" d="M18.9983,28.8041c-1.7492-0.2575-3.4224-0.5009-5.0936-0.7578
		c-0.0898-0.0138-0.2166-0.13-0.2339-0.2169c-0.1161-0.5835-0.2072-1.172-0.3179-1.8268c1.8841,0.8544,3.8187,1.1849,5.8357,1.4439
		C19.1251,27.8996,19.0646,28.3311,18.9983,28.8041z"/>
</g>
<g>
	<path style="fill:#001E28;" d="M3.4472,52.6411v-4.5328h1.4231c0.3487,0,0.651,0.0334,0.906,0.1007
		c0.2555,0.0668,0.4543,0.1874,0.597,0.3608S6.587,48.9885,6.587,49.306c0,0.1865-0.017,0.3523-0.051,0.4977
		c-0.034,0.1459-0.0968,0.2714-0.188,0.378c-0.0917,0.1061-0.2225,0.1951-0.393,0.2655l0.7087,2.1939h-1.181l-0.5676-2.0313H4.5896
		v2.0313H3.4472z M4.5896,50.0331h0.3188c0.1617,0,0.2874-0.0248,0.3765-0.0754c0.0896-0.0501,0.1525-0.1228,0.1885-0.2181
		c0.0361-0.0953,0.0541-0.21,0.0541-0.3441c0-0.1942-0.0402-0.345-0.121-0.4534c-0.0809-0.1079-0.2297-0.1621-0.4471-0.1621H4.5896
		V50.0331z"/>
	<path style="fill:#001E28;" d="M7.9149,52.6411v-4.5328h2.3229v0.6828H9.0573v1.1245h0.8998v0.6941H9.0573v1.3539h1.1934v0.6774
		H7.9149z"/>
	<path style="fill:#001E28;" d="M12.8863,52.708c-0.3914,0-0.701-0.0623-0.9287-0.187c-0.2277-0.1255-0.3884-0.3008-0.4816-0.5266
		c-0.0937-0.2249-0.1406-0.4913-0.1406-0.7966v-1.6344c0-0.3134,0.0469-0.583,0.1406-0.8088
		c0.0932-0.2258,0.2539-0.4001,0.4816-0.5234c0.2277-0.1228,0.5372-0.1847,0.9287-0.1847c0.3832,0,0.6819,0.0551,0.8967,0.1653
		c0.2148,0.1102,0.3672,0.2642,0.4563,0.4615c0.0896,0.1978,0.1344,0.4254,0.1344,0.6828v0.3915h-1.1172v-0.453
		c0-0.0899-0.0052-0.1752-0.016-0.2574s-0.0412-0.1504-0.0927-0.2046c-0.051-0.0537-0.138-0.0808-0.2617-0.0808
		c-0.119,0-0.2071,0.028-0.2647,0.084c-0.0572,0.056-0.0937,0.1255-0.1087,0.2095c-0.0149,0.084-0.0221,0.173-0.0221,0.266v2.132
		c0,0.1012,0.0098,0.1933,0.0288,0.2773s0.0572,0.1508,0.1149,0.2014c0.0572,0.0506,0.1411,0.075,0.2519,0.075
		c0.1195,0,0.2045-0.0262,0.2555-0.0804c0.051-0.0542,0.0829-0.1246,0.0958-0.2095c0.0129-0.0867,0.0191-0.1743,0.0191-0.2637
		v-0.4751h1.1172v0.3911c0,0.2574-0.0438,0.4877-0.1308,0.691c-0.0876,0.2041-0.2385,0.364-0.4533,0.4814
		C13.5749,52.6493,13.2736,52.708,12.8863,52.708z"/>
	<path style="fill:#001E28;" d="M15.6377,52.6411v-4.5328h2.3229v0.6828h-1.1805v1.1245h0.8998v0.6941h-0.8998v1.3539h1.1934v0.6774
		H15.6377z"/>
	<path style="fill:#001E28;" d="M19.1288,52.6411v-4.5328h0.804l1.0595,2.1822v-2.1822h0.9446v4.5328h-0.7726l-1.0595-2.3506v2.3506
		H19.1288z"/>
	<path style="fill:#001E28;" d="M23.8133,52.6411v-3.7885h-0.7788v-0.7442h2.7v0.7442h-0.7721v3.7885H23.8133z"/>
	<path style="fill:#001E28;" d="M26.8259,52.6411v-4.5328h2.2338v0.677h-1.0914v1.1417h0.9508v0.7h-0.9508v2.0142H26.8259z"/>
	<path style="fill:#001E28;" d="M31.7144,52.708c-0.3868,0-0.6933-0.0596-0.9189-0.1788s-0.3873-0.2908-0.4852-0.5148
		c-0.0979-0.224-0.1468-0.4904-0.1468-0.8002v-1.6845c0-0.3134,0.0489-0.5799,0.1468-0.8003
		c0.0979-0.2199,0.2596-0.3888,0.4852-0.5062c0.2256-0.1174,0.5321-0.1766,0.9189-0.1766c0.3914,0,0.701,0.0592,0.9287,0.1766
		c0.2277,0.1174,0.3904,0.2863,0.4883,0.5062c0.0979,0.2204,0.1468,0.4868,0.1468,0.8003v1.6845
		c0,0.3098-0.0489,0.5762-0.1468,0.8002c-0.0979,0.224-0.2606,0.3956-0.4883,0.5148C32.4154,52.6483,32.1058,52.708,31.7144,52.708z
		 M31.7144,51.9971c0.1195,0,0.2065-0.0253,0.2617-0.0777c0.0556-0.0524,0.0917-0.1192,0.1087-0.2014
		c0.017-0.0822,0.0258-0.1662,0.0258-0.252v-2.1826c0-0.0894-0.0088-0.1743-0.0258-0.2547
		c-0.017-0.0799-0.0531-0.1463-0.1087-0.1987c-0.0551-0.0519-0.1422-0.0781-0.2617-0.0781c-0.1107,0-0.1937,0.0262-0.2488,0.0781
		c-0.0551,0.0524-0.0917,0.1188-0.1087,0.1987c-0.017,0.0804-0.0252,0.1653-0.0252,0.2547v2.1826
		c0,0.0858,0.0072,0.1698,0.0221,0.252c0.0149,0.0822,0.0489,0.149,0.1025,0.2014C31.5094,51.9718,31.5954,51.9971,31.7144,51.9971z
		"/>
	<path style="fill:#001E28;" d="M34.6126,52.6411v-4.5328h1.4231c0.3487,0,0.651,0.0334,0.906,0.1007
		c0.2555,0.0668,0.4543,0.1874,0.597,0.3608s0.2138,0.4186,0.2138,0.7361c0,0.1865-0.017,0.3523-0.051,0.4977
		c-0.034,0.1459-0.0968,0.2714-0.188,0.378c-0.0917,0.1061-0.2225,0.1951-0.393,0.2655l0.7087,2.1939h-1.181l-0.5676-2.0313h-0.3255
		v2.0313H34.6126z M35.7551,50.0331h0.3188c0.1617,0,0.2874-0.0248,0.3765-0.0754c0.0896-0.0501,0.1525-0.1228,0.1885-0.2181
		c0.0361-0.0953,0.0541-0.21,0.0541-0.3441c0-0.1942-0.0402-0.345-0.121-0.4534c-0.0809-0.1079-0.2297-0.1621-0.4471-0.1621h-0.3698
		V50.0331z"/>
	<path style="fill:#001E28;" d="M39.0607,52.6411l0.0896-4.5328h1.2253l0.5681,2.636l0.6124-2.636h1.181l0.0891,4.5328h-0.8102
		l-0.0958-3.0163l-0.6,3.0163h-0.7211l-0.6382-3.0389l-0.0767,3.0389H39.0607z"/>
</g>
<g>
	<path style="fill:#001E28;" d="M44.8747,54.4631H1.3987v-8.1719h43.4761V54.4631z M1.8987,53.9631h42.4761v-7.1719H1.8987V53.9631z
		"/>
</g>
</svg>
