<?xml version="1.0" encoding="utf-8"?>
<!-- Generator: Adobe Illustrator 24.3.0, SVG Export Plug-In . SVG Version: 6.00 Build 0)  -->
<svg version="1.1" id="Layer_1" xmlns="http://www.w3.org/2000/svg" xmlns:xlink="http://www.w3.org/1999/xlink" x="0px" y="0px"
	 width="29.0107px" height="19.8154px" viewBox="0 0 29.0107 19.8154" style="enable-background:new 0 0 29.0107 19.8154;"
	 xml:space="preserve">
<g>
	<rect x="13.5952" y="8.0416" width="1.9719" height="1.9719"/>
	<rect x="13.5952" y="12.0359" width="1.9719" height="1.9719"/>
	<path d="M9.4193,15.3372H7.7724V9.1321c-0.6089,0.5669-1.335,0.993-2.1269,1.2481V8.886c0.5087-0.1852,0.9822-0.4557,1.4-0.8
		c0.4709-0.3485,0.831-0.8256,1.0371-1.374h1.3367V15.3372z"/>
	<path d="M20.9331,6.639c0.7559-0.0351,1.4824,0.2965,1.9511,0.8906c0.6505,1.0446,0.9445,2.272,0.8379,3.498
		c0.1052,1.2285-0.1908,2.4579-0.8437,3.5039c-0.4696,0.5885-1.1933,0.9155-1.9453,0.8789
		c-0.7895,0.0221-1.5416-0.3364-2.0215-0.9638c-0.6123-1.0358-0.881-2.2388-0.7676-3.4366
		c-0.1044-1.2247,0.1917-2.4502,0.8437-3.4921C19.4573,6.9294,20.1811,6.6024,20.9331,6.639z M20.9331,8.0042
		c-0.1946-0.0017-0.3835,0.0656-0.5332,0.19c-0.1887,0.1846-0.3156,0.423-0.3633,0.6826c-0.1388,0.7078-0.1959,1.4292-0.17,2.15
		c-0.0267,0.6962,0.0245,1.3932,0.1527,2.078c0.051,0.2833,0.1845,0.5452,0.3838,0.7529c0.3104,0.2511,0.7544,0.2499,1.0635-0.0029
		c0.1886-0.1846,0.3155-0.423,0.3632-0.6826c0.1392-0.7059,0.1962-1.4256,0.17-2.1446c0.0268-0.6959-0.0243-1.3926-0.1524-2.0771
		c-0.0515-0.284-0.1849-0.5467-0.3838-0.7559C21.3152,8.0698,21.127,8.0022,20.9331,8.0042z"/>
	<path d="M26.0444,2.1304v-4.1408h-1v4.1408H4.0839v-4.1408h-1v4.1408H0.7583v17.685h27.4941V2.1304H26.0444z M27.2524,18.8154
		H1.7583V3.1304h25.4941V18.8154z"/>
</g>
</svg>
