<?xml version="1.0" encoding="utf-8"?>
<!-- Generator: Adobe Illustrator 24.3.0, SVG Export Plug-In . SVG Version: 6.00 Build 0)  -->
<svg version="1.1" id="Layer_1" xmlns="http://www.w3.org/2000/svg" xmlns:xlink="http://www.w3.org/1999/xlink" x="0px" y="0px"
	 width="29.0107px" height="19.8154px" viewBox="0 0 29.0107 19.8154" style="enable-background:new 0 0 29.0107 19.8154;"
	 xml:space="preserve">
<g>
	<g>
		<g>
			<path d="M13.7525,17.5599c-3.041,0-5.5156-2.4746-5.5156-5.5156s2.4746-5.5156,5.5156-5.5156s5.5156,2.4746,5.5156,5.5156
				S16.7936,17.5599,13.7525,17.5599z M13.7525,7.5287c-2.4902,0-4.5156,2.0254-4.5156,4.5156s2.0254,4.5156,4.5156,4.5156
				s4.5156-2.0254,4.5156-4.5156S16.2428,7.5287,13.7525,7.5287z"/>
		</g>
		<g>
			<g>
				<polygon points="15.2317,14.2303 13.2522,12.2517 13.2522,9.6267 14.2522,9.6267 14.2522,11.8377 15.9387,13.5232 				"/>
			</g>
		</g>
	</g>
	<path d="M20.616,0.8662v-1.9775h-1v1.9775H8.6892v-1.9775h-1v1.9775H0.6321v18.9492h27.7466V0.8662H20.616z M27.3787,1.8662v2.4385
		H1.6321V1.8662H27.3787z M1.6321,18.8154V5.3047h25.7466v13.5107H1.6321z"/>
</g>
</svg>
