<?xml version="1.0" encoding="utf-8"?>
<!-- Generator: Adobe Illustrator 24.3.0, SVG Export Plug-In . SVG Version: 6.00 Build 0)  -->
<svg version="1.1" id="Layer_1" xmlns="http://www.w3.org/2000/svg" xmlns:xlink="http://www.w3.org/1999/xlink" x="0px" y="0px"
	 width="29.0107px" height="19.8154px" viewBox="0 0 29.0107 19.8154" style="enable-background:new 0 0 29.0107 19.8154;"
	 xml:space="preserve">
<path style="fill:none;" d="M14.0054,14.203c-2.1589-0.2515-3.8462-2.0699-3.8462-4.2952s1.6873-4.0441,3.8462-4.2957V1H1v5.4357
	h4.9585v6.9438H1v5.4359h13.0054V14.203z"/>
<path style="fill:none;" d="M15.0054,5.6122c2.1592,0.2515,3.8462,2.0704,3.8462,4.2957s-1.687,4.0437-3.8462,4.2952v4.6124h13.0054
	v-5.4359h-4.958V6.4357h4.958V1H15.0054V5.6122z"/>
<path style="fill:none;" d="M11.1592,9.9078c0,1.6736,1.2392,3.0515,2.8462,3.2952V6.6122
	C12.3984,6.8558,11.1592,8.2338,11.1592,9.9078z"/>
<rect x="1" y="7.4357" style="fill:none;" width="3.9585" height="4.9438"/>
<path style="fill:none;" d="M17.8516,9.9078c0-1.674-1.2392-3.052-2.8462-3.2957v6.5908
	C16.6124,12.9594,17.8516,11.5814,17.8516,9.9078z"/>
<rect x="24.0527" y="7.4357" style="fill:none;" width="3.958" height="4.9438"/>
<path d="M28.0107,0H15.0054h-1H1H0v1v17.8154v1h1h13.0054h1h13.0054h1v-1V1V0H28.0107z M15.0054,6.6122
	c1.607,0.2437,2.8462,1.6216,2.8462,3.2957c0,1.6736-1.2392,3.0515-2.8462,3.2952V6.6122z M1,7.4357h3.9585v4.9438H1V7.4357z
	 M1,18.8154v-5.4359h4.9585V6.4357H1V1h13.0054v4.6122c-2.1589,0.2516-3.8462,2.0704-3.8462,4.2957s1.6873,4.0436,3.8462,4.2952
	v4.6124H1z M14.0054,13.203c-1.607-0.2437-2.8462-1.6216-2.8462-3.2952c0-1.674,1.2392-3.052,2.8462-3.2957V13.203z
	 M28.0107,12.3795h-3.958V7.4357h3.958V12.3795z M28.0107,6.4357h-4.958v6.9438h4.958v5.4359H15.0054V14.203
	c2.1592-0.2515,3.8462-2.0699,3.8462-4.2952s-1.687-4.0441-3.8462-4.2957V1h13.0054V6.4357z"/>
</svg>
